<svg width="48" height="48" viewBox="0 0 48 48" fill="none" xmlns="http://www.w3.org/2000/svg">
<rect width="48" height="48" fill="#F97316"/>
<rect x="6" y="6" width="36" height="32" rx="2" stroke="white" stroke-width="4"/>
<path d="M17.9126 30.3628C17.5709 30.2603 17.2243 30.0738 16.9073 29.9033C15.306 29.044 13.9812 27.6973 13.1014 26.0346C11.9736 23.9141 11.7079 21.2876 12.3228 18.946C12.9656 16.504 14.5006 14.4374 16.5852 13.2074C18.6525 11.9848 21.0888 11.6761 23.3681 12.348C25.6125 13.0399 27.5092 14.6469 28.6455 16.8191C29.8045 19.0661 30.0769 21.7108 29.4027 24.1714C30.8057 24.1992 32.2167 24.18 33.6201 24.1693C33.7706 23.7979 33.993 23.4784 34.3097 23.2494C34.7111 22.9591 35.2081 22.8686 35.6819 22.9683C36.1711 23.0712 36.5669 23.3776 36.839 23.8188C37.1076 24.2533 37.1998 24.7848 37.0948 25.2927C37.0094 25.7111 36.7707 26.1736 36.4257 26.4092C36.233 26.6618 35.7986 26.7852 35.5062 26.8171C35.2387 26.8463 34.9791 26.8177 34.7281 26.7135C34.3081 26.5978 33.9752 26.2247 33.7317 25.8628L28.8118 25.8598C28.538 26.3644 28.2315 26.8463 27.8584 27.275C28.3721 27.8217 29.1155 28.5225 29.5201 29.1416L31.8082 29.1384C32.1046 28.6331 32.4556 28.2468 33.0179 28.1061C33.4901 27.9879 34.0263 28.0784 34.4365 28.355C34.8381 28.6294 35.1204 29.0627 35.2207 29.5592C35.3306 30.0849 35.2422 30.6625 34.964 31.1144C34.7021 31.54 34.2854 31.8602 33.8142 31.961C33.3496 32.0604 32.8715 31.9698 32.4778 31.6876C32.1683 31.4657 31.9773 31.1805 31.7967 30.8393L29.5069 30.8395C29.0107 30.839 28.1732 30.9107 27.715 30.7583C27.458 30.6728 27.2546 30.4845 27.0674 30.2861L26.0036 29.1417C25.2841 29.68 24.5639 30.0642 23.7425 30.3933C23.1406 30.6056 22.2135 30.8695 21.5855 30.872C21.1896 30.9151 20.7771 30.9162 20.3795 30.8959C19.5624 30.8766 18.6807 30.6574 17.9126 30.3628Z" fill="white"/>
<path d="M14.7238 22.6395C14.4869 20.7198 14.7958 18.9759 15.9236 17.4159C16.933 16.0083 18.4326 15.092 20.0842 14.8738C21.7729 14.6318 23.4819 15.126 24.823 16.2442C26.0998 17.302 26.9267 18.8583 27.1202 20.5676C27.319 22.2663 26.9072 23.8868 26.0014 25.2907C25.5857 24.8501 25.1729 24.4062 24.7632 23.9593C24.4042 23.5684 23.8352 22.8572 23.407 22.5983C23.257 22.5075 23.0486 22.4674 22.8782 22.4672C22.5239 22.467 22.1751 22.6375 21.9328 22.9102C21.6901 23.1834 21.5493 23.5544 21.57 23.9323C21.5818 24.1499 21.652 24.4077 21.7591 24.5955C21.9688 24.9629 22.3322 25.2737 22.6177 25.5753C23.1177 26.1036 23.6259 26.6292 24.1111 27.1728C22.7049 28.0983 21.1011 28.4398 19.4773 28.032C18.7851 27.8583 18.079 27.5453 17.4923 27.1146C17.2768 26.9564 17.0727 26.7556 16.8516 26.6115C15.6845 25.5051 15.0204 24.2711 14.7238 22.6395Z" fill="#F97316"/>
<path d="M33.3107 29.3468C33.6669 29.2688 34.0145 29.5144 34.0851 29.8938C34.1559 30.2732 33.9226 30.6413 33.5654 30.7138C33.2119 30.7856 32.8701 30.5404 32.8001 30.1648C32.7301 29.7892 32.9582 29.4239 33.3107 29.3468Z" fill="#F97316"/>
<path d="M35.2635 24.1958C35.6185 24.1702 35.9256 24.4558 35.9493 24.8335C35.973 25.2111 35.7042 25.5377 35.3491 25.5624C34.9947 25.5871 34.6884 25.3017 34.6648 24.9246C34.6411 24.5476 34.909 24.2214 35.2635 24.1958Z" fill="#F97316"/>
<rect x="20" y="40" width="8" height="2" fill="white"/>
<rect x="12" y="42" width="24" height="4" rx="2" fill="white"/>
</svg>
